# AST/ASF file generated using VICON BodyLanguage
# -----------------------------------------------
:version 1.10
:name VICON
:units
  mass 1.0
  length 0.45
  angle deg
:documentation
   .ast/.asf automatically generated from VICON data using
   VICON BodyBuilder and BodyLanguage model FoxedUp or BRILLIANT.MOD
:root
   order TX TY TZ RX RY RZ
   axis XYZ
   position 0 0 0  
   orientation 0 0 0 
:bonedata
  begin
     id 1 
     name lhipjoint
     direction 0.584852 -0.759097 0.285867 
     length 2.43633 
     axis 0 0 0  XYZ
  end
  begin
     id 2 
     name lfemur
     direction 0.34202 -0.939693 0  
     length 7.14704  
     axis 0 0 20  XYZ
    dof rx ry rz
    limits (-160.0 20.0)
           (-70.0 70.0)
           (-60.0 70.0)
  end
  begin
     id 3 
     name ltibia
     direction 0.342022 -0.939692 0   
     length 7.68483   
     axis 0 0 20   XYZ
    dof rx
    limits (-10.0 170.0)
  end
  begin
     id 4 
     name lfoot
     direction 0.0999605 -0.274639 0.956337   
     length 2.40452   
     axis -90 7.62852e-016 20   XYZ
    dof rx rz
    limits (-45.0 90.0)
           (-70.0 20.0)
  end
  begin
     id 5 
     name ltoes
     direction 1.53468e-011 -4.21881e-011 1   
     length 1.19837   
     axis -90 7.62852e-016 20   XYZ
    dof rx
    limits (-90.0 20.0)
  end
  begin
     id 6 
     name rhipjoint
     direction -0.569886 -0.769002 0.289597   
     length 2.40495  
     axis 0 0 0  XYZ 
  end
  begin
     id 7 
     name rfemur
     direction -0.34202 -0.939693 0   
     length 7.45086   
     axis 0 0 -20   XYZ
    dof rx ry rz
    limits (-160.0 20.0)
           (-70.0 70.0)
           (-70.0 60.0)
  end
  begin
     id 8 
     name rtibia
     direction -0.34202 -0.939693 0   
     length 7.76831   
     axis 0 0 -20   XYZ
    dof rx
    limits (-10.0 170.0)
 end
 begin
     id 9 
     name rfoot
     direction -0.0798572 -0.219406 0.97236   
     length 2.35911  
     axis -90 -7.62852e-016 -20   XYZ
    dof rx rz
    limits (-45.0 90.0)
           (-20.0 70.0)
  end
  begin
     id 10 
     name rtoes
     direction -1.53469e-011 -4.21728e-011 1   
     length 1.18261   
     axis -90 -7.62852e-016 -20   XYZ
    dof rx
    limits (-90.0 20.0)
  end
  begin
     id 11 
     name lowerback
     direction 0.0242088 0.999437 0.0232389   
     length 2.1561   
     axis 0 0 0   XYZ
    dof rx ry rz
    limits (-20.0 45.0)
           (-30.0 30.0)
           (-30.0 30.0)
  end
  begin
     id 12 
     name upperback
     direction -0.0356893 0.999013 -0.0264323   
     length 2.14431   
     axis 0 0 0   XYZ
    dof rx ry rz
    limits (-20.0 45.0)
           (-30.0 30.0)
           (-30.0 30.0)
  end
  begin
     id 13 
     name thorax
     direction -0.0472163 0.998194 -0.0371284   
     length 2.16169   
     axis 0 0 0   XYZ
    dof rx ry rz
    limits (-20.0 45.0)
           (-30.0 30.0)
           (-30.0 30.0)
  end
  begin
     id 14 
     name lowerneck
     direction 0.00863244 0.999921 0.00911972   
     length 1.58651   
     axis 0 0 0   XYZ
    dof rx ry rz
    limits (-20.0 45.0)
           (-30.0 30.0)
           (-30.0 30.0)
  end
  begin
     id 15 
     name upperneck
     direction 0.149523 0.979068 -0.138086   
     length 1.57486   
     axis 0 0 0   XYZ
    dof rx ry rz
    limits (-20.0 45.0)
           (-30.0 30.0)
           (-30.0 30.0)
  end
  begin
     id 16
     name head
     direction 0.0445219 0.997708 -0.0509576  
     length 1.6019  
     axis 0 0 0   XYZ
    dof rx ry rz
    limits (-20.0 45.0)
           (-30.0 30.0)
           (-30.0 30.0)
  end
  begin
     id 17 
     name lclavicle
     direction 0.911271 0.381667 -0.154644  
     length 3.80848  
     axis 0 0 0   XYZ
    dof ry rz
    limits (-20.0 10.0)
           (0.0 20.0)
  end
  begin
     id 18 
     name lhumerus
     direction 1 -4.49003e-011 2.1308e-027   
     length 5.19069   
     axis 180 -30 -90   XYZ
    dof rx ry rz
    limits (-60.0 90.0)
           (-90.0 90.0)
           (-90.0 90.0)
  end
  begin
     id 19
     name lradius
     direction 1 -4.48914e-011 4.01554e-027   
     length 3.30016   
     axis 180 -30 -90   XYZ
    dof rx
    limits (-10.0 170.0)
  end
  begin
     id 20
     name lwrist
     direction 1 -4.49003e-011 1.1934e-026   
     length 1.65008   
     axis -8.46377e-015 90 90   XYZ
    dof ry
    limits (-180.0 0.0)
 end
  begin
     id 21 
     name lhand
     direction 1 -4.49034e-011 2.38659e-026   
     length 0.707698   
     axis -1.52313e-014 90 90   XYZ
    dof rx rz
    limits (-90.0 90.0)
           (-45.0 45.0)
  end
  begin
     id 22 
     name lfingers
     direction 1 -4.48691e-011 4.77775e-026   
     length 0.570564   
     axis -3.04623e-014 90 90   XYZ
    dof rx
    limits (0.0 90.0)
  end
  begin
     id 23
     name lthumb
     direction 0.707107 -6.34832e-011 0.707107   
     length 0.819219   
     axis -90 45 -1.62303e-014   XYZ
    dof rx rz
    limits (-45.0 45.0)
           (-45.0 45.0)
  end
  begin
     id 24 
     name rclavicle
     direction -0.815579 0.573708 -0.0754329   
     length 3.54371  
     axis 0 0 0   XYZ 
    dof ry rz
    limits (-10.0 20.0)
           (-20.0 0.0)
  end
  begin
     id 25 
     name rhumerus
     direction -1 -4.48956e-011 3.05351e-028  
     length 5.23924   
     axis 180 30 90   XYZ
    dof rx ry rz
    limits (-90.0 60.0)
           (-90.0 90.0)
           (-90.0 90.0)
  end
  begin
     id 26 
     name rradius
     direction -1 -4.49013e-011 3.53849e-027   
     length 3.32953   
     axis 180 30 90   XYZ
    dof rx
    limits (-10.0 170.0)
  end
  begin
     id 27 
     name rwrist
     direction -1 -4.48901e-011 1.19374e-026   
     length 1.66477   
     axis -8.46377e-015 -90 -90   XYZ
    dof ry
    limits (-180.0 0.0)
  end
  begin
     id 28
     name rhand
     direction -1 -4.48877e-011 2.38764e-026   
     length 0.607414   
     axis -1.52313e-014 -90 -90   XYZ
    dof rx rz
    limits (-90.0 90.0)
           (-45.0 45.0)
  end
  begin
     id 29
     name rfingers
     direction -1 -4.48882e-011 4.77521e-026   
     length 0.489712   
     axis -3.04623e-014 -90 -90   XYZ
    dof rx
    limits (0.0 90.0)
  end
  begin
     id 30
     name rthumb
     direction -0.707107 -6.34974e-011 0.707107   
     length 0.703132   
     axis -90 -45 1.62303e-014   XYZ
    dof rx rz
    limits (-45.0 45.0)
           (-45.0 45.0)
  end
:hierarchy
  begin
    root lhipjoint rhipjoint lowerback
    lhipjoint lfemur
    lfemur ltibia
    ltibia lfoot
    lfoot ltoes
    rhipjoint rfemur
    rfemur rtibia
    rtibia rfoot
    rfoot rtoes
    lowerback upperback
    upperback thorax
    thorax lowerneck lclavicle rclavicle
    lowerneck upperneck
    upperneck head
    lclavicle lhumerus
    lhumerus lradius
    lradius lwrist
    lwrist lhand lthumb
    lhand lfingers
    rclavicle rhumerus
    rhumerus rradius
    rradius rwrist
    rwrist rhand rthumb
    rhand rfingers
  end

#!OML:ASF E:\VariousWalksJay\Project 1\Capture day 1\Session 1\Actor2.ASF
:FULLY-SPECIFIED
:DEGREES
200
root 27.2271 16.5306 -29.86 3.92984 -36.7329 2.27486
lowerback 10.3786 -1.15256 -0.36124
upperback 14.3458 -1.729 -3.53831
thorax 9.45087 -0.827627 -3.58821
lowerneck 11.4784 -0.70498 -1.14109
upperneck -5.13896 -0.469931 8.48652
head -3.3828 -0.64101 2.80875
rclavicle -2.38542e-014 1.43125e-014
rhumerus -24.3642 15.6125 -85.8408
rradius 65.5908
rwrist -2.76284
rhand -23.5667 -4.34462
rfingers 7.12502
rthumb 2.89582 -34.3047
lclavicle -2.38542e-014 1.43125e-014
lhumerus 7.46604 -34.1606 77.6721
lradius 78.3416
lwrist 64.8417
lhand -36.8509 8.30278
lfingers 7.12502
lthumb -9.93083 38.0485
rfemur -61.0952 0.32956 13.2335
rtibia 83.7143
rfoot 3.47199 -8.96794
rtoes 6.88443
lfemur -29.6612 9.23139 -30.9937
ltibia 48.5415
lfoot -27.857 17.2018
ltoes -1.44735
201
root 27.2173 16.5303 -29.8204 3.60576 -36.7794 2.33331
lowerback 10.2376 -1.12177 -0.446351
upperback 14.2943 -1.68584 -3.55696
thorax 9.47493 -0.812558 -3.56402
lowerneck 11.5739 -0.707392 -1.06485
upperneck -4.96802 -0.477791 8.42186
head -3.34643 -0.641213 2.77627
rclavicle -2.06736e-014 3.33958e-014
rhumerus -24.7963 15.4549 -85.9622
rradius 65.5588
rwrist -2.72766
rhand -23.562 -4.31375
rfingers 7.12502
rthumb 2.90032 -34.2738
lclavicle -2.06736e-014 3.33958e-014
lhumerus 7.47189 -34.1243 77.676
lradius 78.3796
lwrist 64.8561
lhand -36.2749 10.7441
lfingers 7.12502
lthumb -9.37507 40.5156
rfemur -61.6173 0.524472 13.2784
rtibia 84.0143
rfoot 2.13133 -9.79783
rtoes 6.99597
lfemur -29.1276 9.25371 -31.0393
ltibia 48.4453
lfoot -27.9753 17.3298
ltoes -1.48778
202
root 27.2058 16.5308 -29.7798 3.28529 -36.884 2.3986
lowerback 10.0677 -1.0784 -0.540571
upperback 14.2355 -1.62484 -3.5893
thorax 9.50798 -0.788569 -3.55044
lowerneck 11.668 -0.707533 -1.00983
upperneck -4.79893 -0.485194 8.36102
head -3.31028 -0.640921 2.74844
rclavicle -2.3059e-014 -3.97569e-015
rhumerus -25.2201 15.3191 -86.0982
rradius 65.4926
rwrist -2.67136
rhand -23.5375 -4.27782
rfingers 7.12502
rthumb 2.92401 -34.2375
lclavicle -2.3059e-014 -3.97569e-015
lhumerus 7.52809 -34.0722 77.6047
lradius 78.3857
lwrist 64.8922
lhand -35.7472 12.7947
lfingers 7.12502
lthumb -8.86589 42.5885
rfemur -62.1278 0.7815 13.3322
rtibia 84.2158
rfoot 0.690694 -10.6491
rtoes 7.0025
lfemur -28.5926 9.36298 -31.0929
ltibia 48.3372
lfoot -28.1027 17.4364
ltoes -1.54557
203
root 27.1927 16.5321 -29.7382 2.97134 -37.0476 2.46025
lowerback 9.88002 -1.02 -0.64583
upperback 14.1683 -1.54333 -3.6274
thorax 9.54287 -0.755168 -3.53728
lowerneck 11.7558 -0.710252 -0.970856
upperneck -4.61752 -0.499576 8.29508
head -3.26894 -0.643032 2.72193
rclavicle -4.37326e-014 5.80451e-014
rhumerus -25.6384 15.2072 -86.2424
rradius 65.3978
rwrist -2.59035
rhand -23.5047 -4.24744
rfingers 7.12502
rthumb 2.95571 -34.2067
lclavicle -4.37326e-014 5.80451e-014
lhumerus 7.57325 -34.004 77.519
lradius 78.3817
lwrist 64.9137
lhand -35.2862 14.4327
lfingers 7.12502
lthumb -8.42094 44.2449
rfemur -62.6217 1.09802 13.4038
rtibia 84.3197
rfoot -0.84557 -11.4264
rtoes 6.81061
lfemur -28.053 9.56192 -31.1418
ltibia 48.2159
lfoot -28.2417 17.5204
ltoes -1.63362
204
root 27.1778 16.5343 -29.6962 2.66413 -37.2708 2.51813
lowerback 9.67146 -0.947653 -0.757958
upperback 14.0965 -1.44225 -3.67503
thorax 9.58555 -0.712126 -3.53106
lowerneck 11.8023 -0.703699 -1.04318
upperneck -4.1289 -0.539971 8.07407
head -3.47 -0.626031 2.95136
rclavicle 5.32743e-014 -8.66701e-014
rhumerus -26.0459 15.1203 -86.4001
rradius 65.2808
rwrist -2.48578
rhand -23.4653 -4.20804
rfingers 7.12502
rthumb 2.99378 -34.1668
lclavicle 5.32743e-014 -8.66701e-014
lhumerus 7.62013 -33.9209 77.4
lradius 78.3721
lwrist 64.9371
lhand -34.9668 15.5209
lfingers 7.12502
lthumb -8.11276 45.3451
rfemur -63.0996 1.47787 13.4921
rtibia 84.3299
rfoot -2.42422 -12.0931
rtoes 6.33579
lfemur -27.5088 9.85324 -31.1828
ltibia 48.0774
lfoot -28.3825 17.5792
ltoes -1.72245
205
root 27.1616 16.537 -29.6531 2.35646 -37.5011 2.57982
lowerback 9.43903 -0.884909 -0.859623
upperback 14.0285 -1.35152 -3.73794
thorax 9.6455 -0.672076 -3.54757
lowerneck 11.8496 -0.701261 -1.04383
upperneck -3.90489 -0.554861 8.02951
head -3.39954 -0.627691 2.93214
rclavicle -5.32743e-014 1.98785e-014
rhumerus -26.4311 15.0645 -86.579
rradius 65.1458
rwrist -2.3594
rhand -23.4328 -4.17623
rfingers 7.12502
rthumb 3.02517 -34.1345
lclavicle -5.32743e-014 1.98785e-014
lhumerus 7.67231 -33.8191 77.2384
lradius 78.3613
lwrist 64.9584
lhand -34.9188 15.7228
lfingers 7.12502
lthumb -8.06643 45.5489
rfemur -63.5512 1.86446 13.5877
rtibia 84.2558
rfoot -4.01283 -12.6255
rtoes 5.57611
lfemur -26.9516 10.1867 -31.2215
ltibia 47.9176
lfoot -28.5211 17.6122
ltoes -1.82753
206
root 27.1446 16.5405 -29.6089 2.04367 -37.7127 2.64333
lowerback 9.20641 -0.830329 -0.953848
upperback 13.9563 -1.27055 -3.80119
thorax 9.7003 -0.63611 -3.56784
lowerneck 11.8828 -0.703907 -1.05406
upperneck -3.64719 -0.580209 7.9875
head -3.31427 -0.633569 2.91527
rclavicle 1.35174e-014 -5.725e-014
rhumerus -26.822 15.0238 -86.7588
rradius 65.0065
rwrist -2.21683
rhand -23.4107 -4.14832
rfingers 7.12502
rthumb 3.04651 -34.1063
lclavicle 1.35174e-014 -5.725e-014
lhumerus 7.71462 -33.7256 77.0725
lradius 78.3558
lwrist 65.0023
lhand -34.8743 15.9353
lfingers 7.12502
lthumb -8.02346 45.763
rfemur -63.9642 2.22774 13.6928
rtibia 84.1044
rfoot -5.59407 -13.014
rtoes 4.51239
lfemur -26.37 10.5321 -31.2548
ltibia 47.7323
lfoot -28.6537 17.6219
ltoes -1.93672
207
root 27.1273 16.5449 -29.5629 1.71435 -37.8614 2.7097
lowerback 8.98132 -0.803046 -1.02206
upperback 13.8887 -1.2243 -3.86938
thorax 9.75388 -0.614443 -3.60732
lowerneck 11.9162 -0.70573 -1.0808
upperneck -3.37275 -0.606984 7.9619
head -3.2236 -0.640393 2.90704
rclavicle 2.46493e-014 -9.54166e-015
rhumerus -27.2151 15.0028 -86.9461
rradius 64.8721
rwrist -2.06328
rhand -23.4228 -4.15293
rfingers 7.12502
rthumb 3.03476 -34.1111
lclavicle 2.46493e-014 -9.54166e-015
lhumerus 7.77067 -33.6351 76.8765
lradius 78.3523
lwrist 65.085
lhand -34.857 16.1086
lfingers 7.12502
lthumb -8.00678 45.9369
rfemur -64.3196 2.5193 13.8065
rtibia 83.8851
rfoot -7.13811 -13.2657
rtoes 3.13045
lfemur -25.7464 10.8442 -31.2821
ltibia 47.5161
lfoot -28.775 17.6113
ltoes -2.04538
208
root 27.1101 16.5501 -29.5152 1.36879 -37.9369 2.78689
lowerback 8.76599 -0.802609 -1.07525
upperback 13.8226 -1.21285 -3.9386
thorax 9.8017 -0.608412 -3.6557
lowerneck 11.9461 -0.708616 -1.11352
upperneck -3.07823 -0.637021 7.94393
head -3.12551 -0.648748 2.90235
rclavicle 1.43125e-014 -4.77083e-014
rhumerus -27.6194 14.9971 -87.1322
rradius 64.7508
rwrist -1.90739
rhand -23.4447 -4.14492
rfingers 7.12502
rthumb 3.01361 -34.1034
lclavicle 1.43125e-014 -4.77083e-014
lhumerus 7.84053 -33.5528 76.6629
lradius 78.3494
lwrist 65.2024
lhand -34.8473 16.3146
lfingers 7.12502
lthumb -7.99742 46.1433
rfemur -64.6262 2.72586 13.9213
rtibia 83.6087
rfoot -8.63073 -13.4127
rtoes 1.55125
lfemur -25.0845 11.1064 -31.3126
ltibia 47.2671
lfoot -28.8857 17.5784
ltoes -2.1406
